{
  "accessors": [
    {
      "bufferView": 2,
      "componentType": 5126,
      "count": 732,
      "max": [
        25.471168518066406,
        27.759307861328125,
        14.717019081115723
      ],
      "min": [
        3.7631399631500244,
        -0.09185200184583664,
        -11.741287231445313
      ],
      "type": "VEC3"
    },
    {
      "bufferView": 2,
      "byteOffset": 8784,
      "componentType": 5126,
      "count": 732,
      "max": [
        0.9991400241851807,
        0.9838759899139404,
        0.99952232837677
      ],
      "min": [
        -0.9987483620643616,
        -0.9884914755821228,
        -0.9779208898544312
      ],
      "type": "VEC3"
    },
    {
      "bufferView": 3,
      "componentType": 5126,
      "count": 732,
      "max": [
        0.9997847676277161,
        0.9998241662979126,
        0.9935927987098694,
        1.0
      ],
      "min": [
        -0.9557761549949646,
        -0.9976803064346313,
        -0.9669821262359619,
        -1.0
      ],
      "type": "VEC4"
    },
    {
      "bufferView": 1,
      "componentType": 5126,
      "count": 732,
      "max": [
        0.9687569737434387,
        0.9654660224914551
      ],
      "min": [
        0.03880300000309944,
        0.04150800034403801
      ],
      "type": "VEC2"
    },
    {
      "bufferView": 0,
      "componentType": 5125,
      "count": 2838,
      "type": "SCALAR"
    }
  ],
  "asset": {
    "extras": {
      "author": "JackODrawriter (https://sketchfab.com/JackODrawriter)",
      "license": "CC-BY-NC-4.0 (http://creativecommons.org/licenses/by-nc/4.0/)",
      "source": "https://sketchfab.com/3d-models/calaverita-de-azucar-04de1666a3cb42ef923731e19239e17a",
      "title": "Calaverita de Azucar"
    },
    "generator": "Sketchfab-11.53.2",
    "version": "2.0"
  },
  "bufferViews": [
    {
      "buffer": 0,
      "byteLength": 11352,
      "name": "floatBufferViews",
      "target": 34963
    },
    {
      "buffer": 0,
      "byteLength": 5856,
      "byteOffset": 11352,
      "byteStride": 8,
      "name": "floatBufferViews",
      "target": 34962
    },
    {
      "buffer": 0,
      "byteLength": 17568,
      "byteOffset": 17208,
      "byteStride": 12,
      "name": "floatBufferViews",
      "target": 34962
    },
    {
      "buffer": 0,
      "byteLength": 11712,
      "byteOffset": 34776,
      "byteStride": 16,
      "name": "floatBufferViews",
      "target": 34962
    }
  ],
  "buffers": [
    {
      "byteLength": 46488,
      "uri": "scene.bin"
    }
  ],
  "images": [
    {
      "uri": "textures/Txt_Calaverita_baseColor.jpeg"
    },
    {
      "uri": "textures/Txt_Calaverita_metallicRoughness.png"
    },
    {
      "uri": "textures/Txt_Calaverita_normal.png"
    }
  ],
  "materials": [
    {
      "doubleSided": true,
      "name": "Txt_Calaverita",
      "normalTexture": {
        "index": 2
      },
      "occlusionTexture": {
        "index": 1
      },
      "pbrMetallicRoughness": {
        "baseColorTexture": {
          "index": 0
        },
        "metallicRoughnessTexture": {
          "index": 1
        }
      }
    }
  ],
  "meshes": [
    {
      "name": "defaultMaterial",
      "primitives": [
        {
          "attributes": {
            "NORMAL": 1,
            "POSITION": 0,
            "TANGENT": 2,
            "TEXCOORD_0": 3
          },
          "indices": 4,
          "material": 0,
          "mode": 4
        }
      ]
    }
  ],
  "nodes": [
    {
      "children": [
        1
      ],
      "matrix": [
        0.005938167683780193,
        0.0,
        0.0,
        0.0,
        0.0,
        1.3185380973235613e-18,
        -0.005938167683780193,
        0.0,
        0.0,
        0.005938167683780193,
        1.3185380973235613e-18,
        0.0,
        0.0,
        0.0,
        0.0,
        1.0
      ],
      "name": "Sketchfab_model"
    },
    {
      "children": [
        2
      ],
      "matrix": [
        1.0,
        0.0,
        0.0,
        0.0,
        0.0,
        -4.371139006309477e-08,
        0.999999999999999,
        0.0,
        0.0,
        -0.999999999999999,
        -4.371139006309477e-08,
        0.0,
        0.0,
        0.0,
        0.0,
        1.0
      ],
      "name": "Collada visual scene group"
    },
    {
      "children": [
        3
      ],
      "name": "Calaverita"
    },
    {
      "mesh": 0,
      "name": "defaultMaterial"
    }
  ],
  "samplers": [
    {
      "magFilter": 9729,
      "minFilter": 9987,
      "wrapS": 10497,
      "wrapT": 10497
    }
  ],
  "scene": 0,
  "scenes": [
    {
      "name": "Sketchfab_Scene",
      "nodes": [
        0
      ]
    }
  ],
  "textures": [
    {
      "sampler": 0,
      "source": 0
    },
    {
      "sampler": 0,
      "source": 1
    },
    {
      "sampler": 0,
      "source": 2
    }
  ]
}
